<svg width="1431" height="828" xmlns="http://www.w3.org/2000/svg"><defs><linearGradient x1="8.625%" y1="95.37%" x2="25.55%" y2="67.659%" id="a"><stop stop-color="#FFF" stop-opacity="0" offset="0%"/><stop stop-color="#FFF" offset="100%"/></linearGradient><linearGradient x1="2.711%" y1="96.596%" x2="58.638%" y2="10.865%" id="b"><stop stop-color="#40DF6D" stop-opacity="0" offset="0%"/><stop stop-color="#40DF6D" offset="100%"/></linearGradient></defs><g transform="translate(-298 -44)" fill="none" fill-rule="evenodd"><path d="M687 903.8l192.706-192.619a76.817 76.817 0 0 1 54.305-22.484h129.178a76.817 76.817 0 0 0 54.305-22.484l6.612-6.608a76.817 76.817 0 0 1 54.305-22.485h163.178a76.817 76.817 0 0 0 54.305-22.484L1765.6 245.097" stroke="url(#a)" stroke-width="2" opacity=".08"/><path d="M687 903.6l192.706-192.618a76.817 76.817 0 0 1 54.305-22.485h81.489" stroke="url(#b)" stroke-width="2"/><circle fill="#40DF6D" cx="1016" cy="688" r="4"/><path d="M1774 .504l-499.613 500.584a110.504 110.504 0 0 1-78.12 32.344H1010.44c-29.3 0-57.401 11.634-78.12 32.345l-9.511 9.506a110.504 110.504 0 0 1-78.12 32.344H609.953c-29.3 0-57.4 11.634-78.12 32.344L0 1171.564" stroke="#FFF" stroke-width="2" opacity=".08"/></g></svg>